<svg width="20" height="20" viewBox="0 0 20 20" fill="none" xmlns="http://www.w3.org/2000/svg">
<rect width="20" height="20" rx="4" fill="#2F80ED"/>
<g clip-path="url(#clip0_1_736)">
<path d="M11.5001 13.5C11.5001 14.3284 10.8286 15 10.0001 15C9.1717 15 8.50012 14.3284 8.50012 13.5M10.8984 7.11928C11.1161 6.89432 11.2501 6.58781 11.2501 6.25C11.2501 5.55964 10.6905 5 10.0001 5C9.30977 5 8.75012 5.55964 8.75012 6.25C8.75012 6.58781 8.88413 6.89432 9.10187 7.11928M5.27353 8.16148C5.26636 7.43581 5.6576 6.75816 6.28964 6.40153M14.7267 8.16148C14.7339 7.43581 14.3426 6.75816 13.7106 6.40153M13.0001 9.6C13.0001 8.91044 12.6841 8.24912 12.1214 7.76152C11.5588 7.27393 10.7958 7 10.0001 7C9.20447 7 8.44141 7.27393 7.8788 7.76152C7.3162 8.24912 7.00012 8.91044 7.00012 9.6C7.00012 10.7409 6.71719 11.5753 6.36416 12.1723C5.96179 12.8528 5.76061 13.193 5.76856 13.2743C5.77765 13.3673 5.79438 13.3966 5.86979 13.4518C5.93571 13.5 6.26688 13.5 6.92922 13.5H13.071C13.7334 13.5 14.0645 13.5 14.1305 13.4518C14.2059 13.3966 14.2226 13.3673 14.2317 13.2743C14.2396 13.193 14.0385 12.8528 13.6361 12.1723C13.2831 11.5753 13.0001 10.7409 13.0001 9.6Z" stroke="#E8F5E9" stroke-linecap="round" stroke-linejoin="round"/>
</g>
<defs>
<clipPath id="clip0_1_736">
<rect width="12" height="12" fill="white" transform="translate(4 4)"/>
</clipPath>
</defs>
</svg>
